<svg role="img" aria-label="Rakumon Teacher Owl brand icon" viewBox="0 0 128 128" xmlns="http://www.w3.org/2000/svg"><rect width="128" height="128" rx="30" fill="#071226"/><path d="M31 63c0-25 15-42 33-42s33 17 33 42v23c0 20-14 31-33 31S31 106 31 86V63Z" fill="#7C3AED"/><path d="M39 50c2-15 11-25 25-25s23 10 25 25c-7-7-16-10-25-10S46 43 39 50Z" fill="#A78BFA" opacity=".62"/><path d="M42 80c0-14 9-24 22-24s22 10 22 24v17c-6 9-14 14-22 14s-16-5-22-14V80Z" fill="#F8FAFC"/><path d="M64 62l-8 10h16l-8-10Z" fill="#F59E0B"/><path d="M50 78c3 5 7 8 14 8s11-3 14-8" fill="none" stroke="#351069" stroke-linecap="round" stroke-width="4"/><circle cx="49" cy="59" r="13" fill="#EEF2FF" stroke="#1E1B4B" stroke-width="5"/><circle cx="79" cy="59" r="13" fill="#EEF2FF" stroke="#1E1B4B" stroke-width="5"/><path d="M62 59h4" stroke="#1E1B4B" stroke-linecap="round" stroke-width="5"/><circle cx="49" cy="59" r="5" fill="#111827"/><circle cx="79" cy="59" r="5" fill="#111827"/><circle cx="47" cy="57" r="2" fill="#FFFFFF"/><circle cx="77" cy="57" r="2" fill="#FFFFFF"/><path d="M30 72c-8 5-10 16-6 25 7-2 13-8 15-16" fill="#6D28D9"/><path d="M98 72c8 5 10 16 6 25-7-2-13-8-15-16" fill="#6D28D9"/><path d="M51 104h26" stroke="#DDD6FE" stroke-linecap="round" stroke-width="5"/></svg>